<?xml version="1.0" encoding="UTF-8" standalone="no"?>
<!-- Created with Inkscape (http://www.inkscape.org/) -->
<svg
   xmlns:svg="http://www.w3.org/2000/svg"
   
   xmlns:xlink="http://www.w3.org/1999/xlink"
   version="1.0"
   width="760"
   height="530"
   id="game_window"
   style="display:inline;enable-background:new">
  <defs
     id="defs120" />
  <g
     transform="translate(-0.9827924,0.7371011)"
     id="game_fixed"
     style="display:inline">
    <image
       xlink:href="../css/images/jpoker_table/background.png"
       x="0.98279238"
       y="-0.73710114"
       width="760"
       height="530"
       id="game_background"
       style="fill:#dddddd;fill-opacity:1" />
    <image
       xlink:href="../css/images/jpoker_table/table.gif"
       x="80.08094"
       y="90.330521"
       width="596"
       height="228"
       id="table" />
    <image
       xlink:href="../css/images/jpoker_table/cards/small-back.png"
       x="282.49652"
       y="158.88312"
       width="37"
       height="45"
       id="board0" />
    <use
       transform="translate(41.112982,0)"
       id="board1"
       x="0"
       y="0"
       width="760"
       height="530"
       xlink:href="#board0" />
    <use
       transform="translate(82.225982,0)"
       id="board2"
       x="0"
       y="0"
       width="760"
       height="530"
       xlink:href="#board0" />
    <use
       transform="translate(123.33896,0)"
       id="board3"
       x="0"
       y="0"
       width="760"
       height="530"
       xlink:href="#board0" />
    <use
       transform="translate(164.45194,0)"
       id="board4"
       x="0"
       y="0"
       width="760"
       height="530"
       xlink:href="#board0" />
    <image
       xlink:href="../css/images/jpoker_table/winner.png"
       x="292.51959"
       y="133.50706"
       width="180"
       height="25"
       id="winner0" />
    <image
       xlink:href="../css/images/jpoker_table/winner.png"
       x="305.20087"
       y="208.3877"
       width="180"
       height="25"
       id="winner1" />
    <image
       xlink:href="../css/images/jpoker_table/menu-button.gif"
       x="689.03601"
       y="3.6912289"
       width="67"
       height="20"
       id="quit" />
    <image
       xlink:href="../css/images/jpoker_table/menu-button.gif"
       x="615.89008"
       y="3.6912289"
       width="67"
       height="20"
       id="rebuy" />
    <image
       xlink:href="../css/images/jpoker_table/status.png"
       x="290.56119"
       y="407.67099"
       width="194.30945"
       height="118.59718"
       id="auto_action" />
    <image
       xlink:href="../css/images/jpoker_table/check.png"
       x="290.56119"
       y="407.67099"
       width="44"
       height="30"
       id="check" />
    <image
       xlink:href="../css/images/jpoker_table/call.png"
       x="338.82428"
       y="407.67099"
       width="44"
       height="30"
       id="call" />
    <image
       xlink:href="../css/images/jpoker_table/fold.png"
       x="387.08734"
       y="407.67099"
       width="44"
       height="30"
       id="fold" />
    <image
       xlink:href="../css/images/jpoker_table/raise.png"
       x="290.56119"
       y="441.96948"
       width="44"
       height="30"
       id="raise" />
    <image
       xlink:href="../css/images/jpoker_table/raise_slider_dock.png"
       x="339.71802"
       y="476.26794"
       width="94"
       height="50"
       id="raise_range" />
    <image
       xlink:href="../css/images/jpoker_table/seat-sit.gif"
       x="59.077229"
       y="68.041992"
       width="70"
       height="87"
       id="sit_seat0" />
    <use
       transform="translate(143.89544,-33.922433)"
       id="sit_seat1"
       x="0"
       y="0"
       width="800"
       height="782"
       xlink:href="#sit_seat0" />
    <use
       transform="translate(288.68465,-50.050591)"
       id="sit_seat2"
       x="0"
       y="0"
       width="800"
       height="782"
       xlink:href="#sit_seat0" />
    <use
       transform="translate(442.41147,-33.922433)"
       id="sit_seat3"
       x="0"
       y="0"
       width="800"
       height="782"
       xlink:href="#sit_seat0" />
    <use
       transform="translate(576.47554,2.6289967)"
       id="sit_seat4"
       x="0"
       y="0"
       width="800"
       height="782"
       xlink:href="#sit_seat0" />
    <use
       transform="translate(576.47554,186.79595)"
       id="sit_seat5"
       x="0"
       y="0"
       width="800"
       height="782"
       xlink:href="#sit_seat0" />
    <use
       transform="translate(442.41147,216.29005)"
       id="sit_seat6"
       x="0"
       y="0"
       width="800"
       height="782"
       xlink:href="#sit_seat0" />
    <use
       transform="translate(288.68465,226.12142)"
       id="sit_seat7"
       x="0"
       y="0"
       width="800"
       height="782"
       xlink:href="#sit_seat0" />
    <use
       transform="translate(143.89544,218.11804)"
       id="sit_seat8"
       x="0"
       y="0"
       width="800"
       height="782"
       xlink:href="#sit_seat0" />
    <use
       transform="translate(-1.1461426e-6,186.83642)"
       id="sit_seat9"
       x="0"
       y="0"
       width="800"
       height="782"
       xlink:href="#sit_seat0" />
    <g
       transform="translate(34.529772,-59.425165)"
       id="seat0">
      <g
         transform="translate(-2.1897581,-9.3138686e-6)"
         id="player_seat0">
        <image
           xlink:href="../css/images/jpoker_table/seat.gif"
           x="26.737213"
           y="127.46716"
           width="70"
           height="87"
           id="player_seat0_background" />
        <image
           xlink:href="../css/images/jpoker_table/name.png"
           x="28.737213"
           y="129.46716"
           width="63.912312"
           height="10"
           id="player_seat0_name" />
        <image
           xlink:href="../css/images/jpoker_table/avatar.gif"
           x="29.812256"
           y="151.32977"
           width="63"
           height="43"
           id="player_seat0_avatar" />
        <image
           xlink:href="../css/images/jpoker_table/timeout.png"
           x="32.737213"
           y="145.73549"
           width="59.443508"
           height="3.8063638"
           id="player_seat0_timeout" />
        <image
           xlink:href="../css/images/jpoker_table/money.png"
           x="31.745811"
           y="197.84163"
           width="57.87521"
           height="10"
           id="player_seat0_money" />
        <image
           xlink:href="../css/images/jpoker_table/money.png"
           x="38.19067"
           y="215.71684"
           width="40"
           height="10"
           id="player_seat0_action" />
        <image
           xlink:href="../css/images/jpoker_table/name.png"
           x="94.557175"
           y="133.46716"
           width="23.693085"
           height="23.406408"
           id="player_seat0_stats" />
      </g>
      <image
         xlink:href="../css/images/jpoker_table/name.png"
         x="92.144684"
         y="219.3877"
         width="34.59359"
         height="38.168633"
         id="player_seat0_sidepot" />
      <image
         xlink:href="../css/images/jpoker_table/bet.gif"
         x="90.54174"
         y="219.16499"
         width="24"
         height="24"
         id="player_seat0_bet" />
      <image
         xlink:href="../css/images/jpoker_table/dealer.gif"
         x="115.17166"
         y="193.7975"
         width="25"
         height="26"
         id="dealer0" />
      <g
         transform="translate(-20.869003,-82.01349)"
         id="card_seat0">
        <image
           xlink:href="../css/images/jpoker_table/cards/small-back.png"
           x="39.416458"
           y="231.98524"
           width="37"
           height="45"
           id="card_seat00" />
        <image
           xlink:href="../css/images/jpoker_table/cards/small-back.png"
           x="80.168304"
           y="231.98524"
           width="37"
           height="45"
           id="card_seat01" />
      </g>
      <image
         xlink:href="../css/images/jpoker_table/card-back2.gif"
         x="13.377388"
         y="179.57823"
         width="116"
         height="122"
         id="player_seat0_hole" />
    </g>
    <g
       transform="translate(-8.8010626,28.345915)"
       id="seat1">
      <use
         transform="translate(187.22628,-122.62774)"
         id="player_seat1"
         x="0"
         y="0"
         width="800"
         height="600"
         xlink:href="#player_seat0" />
      <use
         transform="translate(182.62399,-127.81956)"
         id="player_seat1_sidepot"
         x="0"
         y="0"
         width="800"
         height="782"
         xlink:href="#player_seat0_sidepot" />
      <use
         transform="translate(184.82052,-128.91526)"
         id="player_seat1_bet"
         x="0"
         y="0"
         width="800"
         height="600"
         xlink:href="#player_seat0_bet" />
      <use
         transform="translate(192.1906,-123.66973)"
         id="dealer1"
         x="0"
         y="0"
         width="800"
         height="782"
         xlink:href="#dealer0" />
      <use
         transform="translate(189.06296,-121.2963)"
         id="card_seat1"
         x="0"
         y="0"
         width="800"
         height="600"
         xlink:href="#card_seat0" />
      <use
         transform="translate(138.1321,-138.2845)"
         id="player_seat1_hole"
         x="0"
         y="0"
         width="800"
         height="600"
         xlink:href="#player_seat0_hole" />
    </g>
    <g
       transform="translate(-2.6812816,13.608776)"
       id="seat2">
      <use
         transform="translate(328.46715,-122.62773)"
         id="player_seat2"
         x="0"
         y="0"
         width="800"
         height="600"
         xlink:href="#player_seat0" />
      <use
         transform="translate(325.01349,-127.81955)"
         id="player_seat2_sidepot"
         x="0"
         y="0"
         width="800"
         height="782"
         xlink:href="#player_seat0_sidepot" />
      <use
         transform="translate(327.8951,-127.4124)"
         id="player_seat2_bet"
         x="0"
         y="0"
         width="800"
         height="600"
         xlink:href="#player_seat0_bet" />
      <use
         transform="translate(338.03541,-102.93259)"
         id="dealer2"
         x="0"
         y="0"
         width="800"
         height="782"
         xlink:href="#dealer0" />
      <use
         transform="translate(330.45266,-120.3952)"
         id="card_seat2"
         x="0"
         y="0"
         width="800"
         height="600"
         xlink:href="#card_seat0" />
      <use
         transform="translate(278.1321,-142.2845)"
         id="player_seat2_hole"
         x="0"
         y="0"
         width="800"
         height="600"
         xlink:href="#player_seat0_hole" />
    </g>
    <g
       transform="translate(14.740907,27.251015)"
       id="seat3">
      <use
         transform="translate(461.30657,-121.53284)"
         id="player_seat3"
         x="0"
         y="0"
         width="800"
         height="600"
         xlink:href="#player_seat0" />
      <use
         transform="translate(444.55649,-111.18212)"
         id="player_seat3_sidepot"
         x="0"
         y="0"
         width="800"
         height="782"
         xlink:href="#player_seat0_sidepot" />
      <use
         transform="translate(455.87037,-112.11639)"
         id="player_seat3_bet"
         x="0"
         y="0"
         width="800"
         height="600"
         xlink:href="#player_seat0_bet" />
      <use
         transform="translate(458.99831,-91.37753)"
         id="dealer3"
         x="0"
         y="0"
         width="800"
         height="782"
         xlink:href="#dealer0" />
      <use
         transform="translate(464.80657,-120.19006)"
         id="card_seat3"
         x="0"
         y="0"
         width="800"
         height="600"
         xlink:href="#card_seat0" />
      <use
         transform="translate(402.1321,-152.2845)"
         id="player_seat3_hole"
         x="0"
         y="0"
         width="800"
         height="600"
         xlink:href="#player_seat0_hole" />
    </g>
    <g
       transform="translate(-39.506883,-56.743883)"
       id="seat4">
      <use
         transform="translate(654.74453,-1.2408759e-7)"
         id="player_seat4"
         x="0"
         y="0"
         width="800"
         height="600"
         xlink:href="#player_seat0" />
      <use
         transform="translate(540.55371,-5.424953)"
         id="player_seat4_sidepot"
         x="0"
         y="0"
         width="800"
         height="782"
         xlink:href="#player_seat0_sidepot" />
      <use
         transform="translate(552.75024,-6.390861)"
         id="player_seat4_bet"
         x="0"
         y="0"
         width="800"
         height="600"
         xlink:href="#player_seat0_bet" />
      <use
         transform="translate(572.4317,55.706579)"
         id="dealer4"
         x="0"
         y="0"
         width="800"
         height="782"
         xlink:href="#dealer0" />
      <use
         transform="translate(656.5122,1.07971e-2)"
         id="card_seat4"
         x="0"
         y="0"
         width="800"
         height="600"
         xlink:href="#card_seat0" />
      <use
         transform="translate(610.1321,-4.2845)"
         id="player_seat4_hole"
         x="0"
         y="0"
         width="800"
         height="600"
         xlink:href="#player_seat0_hole" />
    </g>
    <g
       transform="translate(-44.834103,-143.26829)"
       id="seat5">
      <use
         transform="translate(655.83942,271.53284)"
         id="player_seat5"
         x="0"
         y="0"
         width="800"
         height="600"
         xlink:href="#player_seat0" />
      <use
         transform="translate(547.6486,121.82478)"
         id="player_seat5_sidepot"
         x="0"
         y="0"
         width="800"
         height="782"
         xlink:href="#player_seat0_sidepot" />
      <use
         transform="translate(559.84513,136.98507)"
         id="player_seat5_bet"
         x="0"
         y="0"
         width="800"
         height="600"
         xlink:href="#player_seat0_bet" />
      <use
         transform="translate(519.01854,187.43339)"
         id="dealer5"
         x="0"
         y="0"
         width="800"
         height="782"
         xlink:href="#dealer0" />
      <use
         transform="translate(657.83942,272.01636)"
         id="card_seat5"
         x="0"
         y="0"
         width="800"
         height="600"
         xlink:href="#card_seat0" />
      <use
         transform="translate(618.1321,129.7155)"
         id="player_seat5_hole"
         x="0"
         y="0"
         width="800"
         height="600"
         xlink:href="#player_seat0_hole" />
    </g>
    <g
       transform="translate(16.740907,-207.221)"
       id="seat6">
      <use
         transform="translate(457.30657,364.59854)"
         id="player_seat6"
         x="0"
         y="0"
         width="800"
         height="600"
         xlink:href="#player_seat0" />
      <use
         transform="translate(390.00952,232.50936)"
         id="player_seat6_sidepot"
         x="0"
         y="0"
         width="800"
         height="782"
         xlink:href="#player_seat0_sidepot" />
      <use
         transform="translate(391.86878,232.51284)"
         id="player_seat6_bet"
         x="0"
         y="0"
         width="800"
         height="600"
         xlink:href="#player_seat0_bet" />
      <use
         transform="translate(338.57613,271.65936)"
         id="dealer6"
         x="0"
         y="0"
         width="800"
         height="782"
         xlink:href="#dealer0" />
      <use
         transform="translate(458.02462,364.81907)"
         id="card_seat6"
         x="0"
         y="0"
         width="800"
         height="600"
         xlink:href="#card_seat0" />
      <use
         transform="translate(460.08488,232.42039)"
         id="player_seat6_hole"
         x="0"
         y="0"
         width="800"
         height="600"
         xlink:href="#player_seat0_hole" />
    </g>
    <g
       transform="translate(-0.6833726,-196.12611)"
       id="seat7">
      <use
         transform="translate(321.8978,363.50365)"
         id="player_seat7"
         x="0"
         y="0"
         width="800"
         height="600"
         xlink:href="#player_seat0" />
      <use
         transform="translate(261.03244,230.45323)"
         id="player_seat7_sidepot"
         x="0"
         y="0"
         width="800"
         height="782"
         xlink:href="#player_seat0_sidepot" />
      <use
         transform="translate(263.22897,230.00141)"
         id="player_seat7_bet"
         x="0"
         y="0"
         width="800"
         height="600"
         xlink:href="#player_seat0_bet" />
      <use
         transform="translate(208.27359,266.08432)"
         id="dealer7"
         x="0"
         y="0"
         width="800"
         height="782"
         xlink:href="#dealer0" />
      <use
         transform="translate(324.97846,363.84181)"
         id="card_seat7"
         x="0"
         y="0"
         width="800"
         height="600"
         xlink:href="#card_seat0" />
      <use
         transform="translate(332.1321,231.7155)"
         id="player_seat7_hole"
         x="0"
         y="0"
         width="800"
         height="600"
         xlink:href="#player_seat0_hole" />
    </g>
    <g
       transform="translate(-8.8010626,-204.85124)"
       id="seat8">
      <use
         transform="translate(187.22628,363.50365)"
         id="player_seat8"
         x="0"
         y="0"
         width="800"
         height="600"
         xlink:href="#player_seat0" />
      <use
         transform="translate(124.62399,231.19524)"
         id="player_seat8_sidepot"
         x="0"
         y="0"
         width="800"
         height="782"
         xlink:href="#player_seat0_sidepot" />
      <use
         transform="translate(124.82052,231.80581)"
         id="player_seat8_bet"
         x="0"
         y="0"
         width="800"
         height="600"
         xlink:href="#player_seat0_bet" />
      <use
         transform="translate(71.08263,260.50927)"
         id="dealer8"
         x="0"
         y="0"
         width="800"
         height="782"
         xlink:href="#dealer0" />
      <use
         transform="translate(188.40356,363.72418)"
         id="card_seat8"
         x="0"
         y="0"
         width="800"
         height="600"
         xlink:href="#card_seat0" />
      <use
         transform="translate(194.39635,232.42039)"
         id="player_seat8_hole"
         x="0"
         y="0"
         width="800"
         height="600"
         xlink:href="#player_seat0_hole" />
    </g>
    <g
       transform="translate(37.009927,-142.1734)"
       id="seat9">
      <use
         transform="translate(1.0948869,270.43795)"
         id="player_seat9"
         x="0"
         y="0"
         width="800"
         height="600"
         xlink:href="#player_seat0" />
      <use
         transform="translate(3.6865283,140.34877)"
         id="player_seat9_sidepot"
         x="0"
         y="0"
         width="800"
         height="782"
         xlink:href="#player_seat0_sidepot" />
      <use
         transform="translate(5.4517547,141.04027)"
         id="player_seat9_bet"
         x="0"
         y="0"
         width="800"
         height="600"
         xlink:href="#player_seat0_bet" />
      <use
         transform="translate(-54.178562,148.10792)"
         id="dealer9"
         x="0"
         y="0"
         width="800"
         height="782"
         xlink:href="#dealer0" />
      <use
         transform="translate(1.0948868,272.21805)"
         id="card_seat9"
         x="0"
         y="0"
         width="800"
         height="600"
         xlink:href="#card_seat0" />
      <use
         transform="translate(8.6899124,139.46929)"
         id="player_seat9_hole"
         x="0"
         y="0"
         width="800"
         height="600"
         xlink:href="#player_seat0_hole" />
    </g>
    <image
       xlink:href="../css/images/jpoker_table/menu-button.gif"
       x="540.90015"
       y="3.6912289"
       width="67"
       height="20"
       id="sitout" />
    <image
       xlink:href="../css/images/jpoker_table/menu-button.gif"
       x="252.56119"
       y="407.67099"
       width="67"
       height="20"
       id="muck_accept" />
    <image
       xlink:href="../css/images/jpoker_table/menu-button.gif"
       x="429.59494"
       y="407.67099"
       width="67"
       height="20"
       id="muck_deny" />
    <image
       xlink:href="../css/images/jpoker_table/status.png"
       x="339.71802"
       y="441.96948"
       width="89.284515"
       height="26.281096"
       id="raise_input" />
    <image
       xlink:href="../css/images/jpoker_table/status.png"
       x="0.55783463"
       y="-0.60556984"
       width="138.05357"
       height="40.973526"
       id="table_info" />
    <image
       xlink:href="../css/images/jpoker_table/menu-button.gif"
       x="541.97327"
       y="3.6912289"
       width="67"
       height="20"
       id="sitin" />
    <image
       xlink:href="../css/images/jpoker_table/status.png"
       x="1.4154663"
       y="373.73169"
       width="139.67525"
       height="13.40641"
       id="powered_by" />
    <image
       xlink:href="../css/images/jpoker_table/raise.png"
       x="290.56119"
       y="476.26794"
       width="44"
       height="30"
       id="allin" />
    <image
       xlink:href="../css/images/jpoker_table/status.png"
       x="577.34949"
       y="360.4938"
       width="184.22353"
       height="30.352667"
       id="hand_strength" />
    <image
       xlink:href="../css/images/jpoker_table/winner.png"
       x="200.98279"
       y="212.26289"
       width="370"
       height="30"
       id="pots" />
    <image
       xlink:href="../css/images/jpoker_table/menu-button.gif"
       x="467.52579"
       y="3.731699"
       width="67"
       height="20"
       id="options"
       style="display:inline;enable-background:new" />
  </g>
</svg>
